<svg id="nav-logo.svg" xmlns="http://www.w3.org/2000/svg" width="26.5" height="26.876" viewBox="0 0 26.5 26.876">
  <defs>
    <style>
      .cls-1 {
        fill: #191722;
        fill-rule: evenodd;
      }
    </style>
  </defs>
  <path id="logo" class="cls-1" d="M139.447,852.831a6.78,6.78,0,0,0-1.5-2.776,6.752,6.752,0,0,0-.579-5.482,6.82,6.82,0,0,0-7.29-3.259,6.75,6.75,0,0,0-5.039-2.241,6.821,6.821,0,0,0-6.467,4.683,6.8,6.8,0,0,0-3.639,11.189,6.8,6.8,0,0,0,4.716,8.657,6.866,6.866,0,0,0,1.775.235,6.761,6.761,0,0,0,1.374-.156,6.75,6.75,0,0,0,5.044,2.246,6.822,6.822,0,0,0,6.467-4.683A6.8,6.8,0,0,0,139.447,852.831Zm-3.684-7.333a4.922,4.922,0,0,1,.6,3.256c-0.032-.019-0.061-0.042-0.094-0.06l-5.592-3.229a0.926,0.926,0,0,0-.925,0l-5.9,3.408v-2.23l5.13-2.962A4.968,4.968,0,0,1,135.763,845.5Zm-6.743,8.494-2.583,1.491-2.583-1.491v-2.983l2.583-1.491,2.583,1.491v2.983Zm-3.984-13.069a4.922,4.922,0,0,1,3.122,1.105c-0.033.018-.067,0.032-0.1,0.051l-5.591,3.228a0.927,0.927,0,0,0-.462.8v6.815l-1.932-1.116v-5.923A4.969,4.969,0,0,1,125.036,840.923Zm-9.325,7a4.918,4.918,0,0,1,2.518-2.153c0,0.038-.006.075-0.006,0.112v6.458a0.927,0.927,0,0,0,.463.8l5.9,3.407-1.931,1.114-5.129-2.961A4.961,4.961,0,0,1,115.711,847.926Zm4.414,13.889a4.966,4.966,0,0,1-3.618-5.57c0.033,0.019.062,0.042,0.095,0.061l5.592,3.228a0.923,0.923,0,0,0,.924,0l3.773-2.177,0,0,2.125-1.226v2.23l-5.129,2.962A4.921,4.921,0,0,1,120.125,861.815Zm7.714,2.262a4.922,4.922,0,0,1-3.125-1.106c0.033-.018.069-0.031,0.1-0.05l5.592-3.228a0.925,0.925,0,0,0,.462-0.8v-6.815l1.932,1.115v5.923A4.969,4.969,0,0,1,127.839,864.077Zm9.326-7a4.926,4.926,0,0,1-2.52,2.153c0-.038.006-0.074,0.006-0.112v-6.457a0.924,0.924,0,0,0-.462-0.8l-5.9-3.407,1.932-1.116,5.128,2.962A4.963,4.963,0,0,1,137.165,857.074Z" transform="translate(-113.188 -839.062)"/>
</svg>
